<svg id="Layer_1" data-name="Layer 1" xmlns="http://www.w3.org/2000/svg" viewBox="0 0 100 100"><defs><style>.cls-1{fill:none;}</style></defs><path d="M99.93,31.94V53.19H97.79V63.82H95.68V59.6H87.16v4.23H85.09v4.25h4.23V70.2H80.8v4.25H78.69v2.12h-6.4v4.25H70.18V74.47H61.67v2.1H59.55V74.48H48.92v2.09h-2.1v4.25H44.66V76.61H36.18V87.19H34V76.53H29.79v-2H27.66v2.1H25.55v2.1h-2.1V72.3H19.17V70.2H14.93V63.8H12.79V59.57H10.68V51.05H6.43l0,0V48.91h4.26V42.58H12.8V55.33H15v6.38h2.14V65.9h8.5V63.79h4.24V57.41h2.08V55.3H29.79V44.67H27.67V42.53H23.42V40.48H14.91V42.6H12.79V40.43H10.68V38.31h2.16v-6.4h2.07V29.8h-2.1V27.68H15V25.53h4.25v-2.1h2.06V19.2H19.18V17.11h4.28v2H25.6V17h2.11V14.93h4.23V12.79H36.2V10.68h6.36V8.57H57.44v2.14h6.38v2.11H53.16v-2.1H46.85V15h8.49v2.11h4.24V19.2h2.06v4.26H57.43v2.13H55.29V38.33H53.16v2.13H51.05v4.26H48.91v2.11H46.8V53.2H42.54v2.13H40.48v8.51h2.1v4.24h2.14v2.13h2.11v2.05H59.59V70.17h2.07V65.93H59.54V63.79H57.42V61.66H55.29V59.55h-2V55.29h2.09V53.22H65.94v2.11h8.51V57.4h8.44V55.29H80.8V53.16H78.66V51.05H72.28V48.91H70.17V46.8H65.93V44.67H63.79V42.55H61.73V36.17h2.1V34h4.25V31.92h2.08V29.81H68.1V21.3h4.17V19.17h-2.1V17.05H68.05V14.93h4.29V17h2.11v-2.1h4.24v2.16h-2.1v4.24h2.12v2.13h2.11v2.13H83v4.24h2.13v4.25H87.2v2.1h4.24v2.16h-2.1v8.44h8.43V34.07H95.68V25.56h2.15v6.38ZM97.79,49H89.34V57.4h6.38V51h2.07Z"/><path d="M25.56,91.43V89.32H19.2V87.2H15V85.09H12.82V82.93h4.27V85h4.24V78.69h2.1v8.53h4.28v2.06H36.2V87.18h2.14v2.07h4.24V87.18h2.13V85.05h2.11v2.13h8.5v2.09h8.51V87.18h2.11V89.3h8.5v2.13H53.19V89.35h-8.5v2.08Z"/><path d="M12.82,82.93H10.7v-2.1H8.59V78.7H6.46V74.46H4.33V68.08H2.22V57.44H.07V46.81h2.1V36.2H4.32v2.11H6.45v2.16H4.28V49H2.23v2.11H6.45l0,0v2.16H2.22v2.11H4.33V65.93H6.45v6.39H8.59v4.23H10.7v2.16h2.11v4.23Z"/><path d="M19.2,19.18v2.14H12.81V19.18Z"/><path d="M6.45,29.81V36.2l-2.14,0V29.81Z"/><path d="M12.82,21.31v2.11H10.7v2.15H8.56V21.31Z"/><path d="M8.57,25.56v4.26H6.43V25.56Z"/><path d="M89.3,70.18h2.12v-2.1h2.11V63.8h2.16v6.37H93.57V72.3H91.46v4.27H89.3Z"/><path d="M78.68,87.19V85.05h4.26v2.14Z"/><path d="M74.43,89.32V87.18h4.26v2.14Z"/><path d="M85.05,82.94V78.68h2.14v4.26Z"/><path d="M87.18,78.69V76.55h2.14v2.14Z"/><path d="M82.93,82.93h2.14v2.14H82.93Z"/><path d="M91.44,19.2H87.2V17.09H83V15H78.68V12.86h6.37v2.08h4.24V17h2.15Z"/><path d="M68.07,15H63.8V12.81h4.27Z"/><path d="M95.69,25.57H93.55V21.31h2.14Z"/><path d="M93.57,21.32l-2.14,0V19.18h2.14Z"/><path d="M85,23.41H83V19.24h2Z"/><path d="M95.69,34.06V36.2H91.43V34.06Z"/><path d="M91.42,29.81V31.9h-4.2V29.82h4.2Z"/><path d="M91.43,21.3v4.22H89.35v-4.2h2.09Z"/><path d="M91.44,29.82V27.73h2.08v2.08H91.44Z"/><path d="M57.43,82.94V76.55h2.14v6.39Z"/><path d="M55.3,87.19V82.93h2.15v4.26Z"/><path d="M70.19,80.8v4.27H68.05V80.8Z"/><path d="M68.07,85.05v2.14H65.93V85.05Z"/><path d="M12.81,74.44V70.18H15v4.26Z"/><path d="M10.68,76.57V74.43h2.14v2.14Z"/><path d="M78.68,76.55h2.14v4.27H78.68Z"/><path d="M80.8,80.8h2.14v2.14H80.8Z"/><path d="M46.8,85.07V80.8h2.1v4.27Z"/><path d="M6.43,65.94V61.68H8.57v4.26Z"/><path d="M8.56,61.69V59.55H10.7v2.14Z"/><path d="M6.43,38.32V36.18H10.7v2.14Z"/><path d="M10.68,25.56h2.14V27.7H10.68Z"/><rect class="cls-1" width="100" height="100"/></svg>