<svg xmlns="http://www.w3.org/2000/svg" viewBox="0 0 693 138.5"><g id="Layer_2" data-name="Layer 2"><g id="Layer_3" data-name="Layer 3"><path d="M531.45,92.25h-2.93V83.76h-2.93v5.48h-2.85c0,1.51-.07,2.9-.08,4.29s0,2.85,0,4.41h-2.8v8.68l-2.93.16v11.41l-2.81.12v8.46l2.65.27v8.39h-46V127h2.79v-8.58h2.72V20.15h-2.64V11.49l-2.82-.16V2.8h54.61V28.55l2.93.29V40.21h2.93V48.8H537V43.28h2.93V34.59l2.93-.16V23l2.81-.12V11.55L543,11.28V2.89h48.91V8.47h-2.73V25.72h2.72V37.31h2.93V46l2.81.15v5.57l2.92.17V43.3l2.93-.23V34.54h2.93V26h2.73V11.48h-2.55V2.82h48.8V8.34l-2.63.3V25.7l2.69.24v11.4h2.93v8.58h2.8v5.8h2.94V43.26l2.82-.16V34.69l2.91-.32V26l2.91-.27V11.45H670V2.87H690.1c0,1.23.06,2.62.07,4s0,2.85,0,4.4h-5.7v5.79l-2.82.16v5.53l-2.91.3v5.48l-2.93.29v5.6h-2.93V43h-2.8v5.81h-2.93v8.68l-2.83.16v5.55l2.61.27v8.37l2.93.29v8.49h2.93v8.59h2.85c0,1.51.07,2.9.08,4.29s0,2.85,0,4.4h2.8v8.69l2.93.16v8.52l2.8.13V121l2.93.3v5.58l2.9.13c0,.94.09,1.75.15,2.81H693v5.68H664.36V127l2.56-.14V124.1l-2.61-.12V106.9l-2.92-.32V98.17L658.46,98V89.52h-2.8V83.73h-2.93V89.3l-2.93.14V98L647,98.1v11.3l-2.93.32V121l-2.89.22v5.65h2.72v8.58H600.73c0-1.26-.07-2.66-.09-4.06s0-2.85,0-4.4h2.73v-2.9l-2.59-.14V106.91l-2.92-.34V98.19l-2.93-.25V89.43H592v-5.7h-2.8v5.56h-2.93V98l-2.82.16V109.4l-2.91.33V121l-2.91.25v5.63h2.72v8.58H534.29c-.19-1.7,0-3.56-.1-5.54h2.74V109.67l-2.57-.14v-8.41l-2.91-.31Zm8.67-26V75h2.8v8.57l2.93.16v8.69h2.8c0,1.55,0,3,0,4.41s.05,2.77.07,4.28h2.86v8.47l2.93.13v5.58l2.93.31v5.53l2.81.13v5.61h5.62l.26-2.91H569v-5.8h2.79v-5.54l2.94-.22v-5.52l2.92-.33V101l2.81-.14V92.19h2.93V83.48h2.81V74.9H589V72.14l-2.9-.23V63.52l-2.92-.34v-8.4l-2.81-.15V46h-2.82c0-1.55,0-3,0-4.4s0-2.8-.09-4.31h-2.82V28.68h-2.93V23.05l-2.93-.25V17.31L565.84,17V11.46l-2.66-.15c-.07-1-.13-1.89-.19-2.69h-2.66L560,11.53h-2.73v5.7h-2.79L554.36,20l-2.94.27v5.49l-2.91.31v8.41l-2.83.16v5.79h-2.8c0,1.55,0,3,0,4.41s0,2.78-.08,4.29H540v5.7h-2.74V66.25Zm72-37.54v5.67l-2.91.3V43.1l-2.82.16V49h-2.81c0,1.55,0,3,0,4.4s-.06,2.79-.09,4.3h-2.72v5.69h2.88V72l2.92.24v8.39l2.92.33v8.41l2.81.14V98l2.92.16v8.69H618c0,1.55,0,3,0,4.4s.06,2.78.09,4.29h2.84v5.7h2.93v5.54h5.81v-2.58l2.91-.32v-5.52l2.82-.16V112.4h2.93v-5.82h2.8v-5.69H644V92.36l2.93-.22V83.73l2.92-.32V75l2.61-.12V72.12L649.66,72V63.28h-2.81c0-1.55,0-3,0-4.4s-.05-2.79-.08-4.3h-2.84V46H641V37.49l-2.92-.25V28.86l-2.92-.33V23l-2.81-.15V17.09h-2.93V11.52h-8.7v5.79h-2.8V22.9L615,23v5.69ZM519.9,89.4V80.83l2.61-.27V66.34l-2.81-.16V57.52h-2.93v-8.7H514V40.24h-2.93V31.67l-2.92-.13V23.06l-2.93-.29V17.29l-2.9-.3V11.46l-2.66-.15c-.07-1-.14-1.89-.2-2.69h-2.65l-.32,2.91h-2.72v8.58H491c-.54,24.86-.31,94.84.36,98.29h2.51V127h2.79c.05,1.07.08,1.88.13,2.86l2.93-.14v-2.64l2.91-.32v-2.63l2.82-.16v-5.78h2.93v-5.81h2.79v-8.58h2.93V98.13l2.93-.21V89.4Z"/><path d="M196.16,135.52H167.51V127h2.74v-5.7h2.52c.59-3.18.81-89.52.27-101.12h-2.67V11.49l-2.82-.16V2.8h40.16V5.52h5.83c.05,1.06.09,1.87.13,2.93h2.75l.14,2.81h2.64l.32,2.93h2.68V20l2.82.16v8.4l2.91.33V51.7l-2.69.24V63.33h-2.93V69h-2.73L219.27,72h-2.69c0,1-.09,1.91-.13,2.9l-2.69.14v8.44l2.63.3v8.38l2.93.25V98h2.94v8.58h2.8v5.82H228v5.78l2.82.14v5.52l2.92.33v2.62l2.91.23c.05.88.1,1.69.15,2.65h2.67l.27-2.62h2.67v-8.71l2.83-.13V14.35l-2.6-.12V8.7l-2.91-.32V2.9h20v8.35h2.88c.14,2,0,3.86.06,5.73s0,3.82,0,5.85h2.79V34.42l2.93.15V46l2.81.13V57.42l2.93.31V69.08l2.93.14V80.57H280c.13,2,0,3.86.06,5.73s0,3.82,0,5.85h5.69V80.8l2.93-.16V66.34l2.81-.12V52l2.93-.29V37.45h2.93V26h2.39a4.74,4.74,0,0,0,.41-.38.61.61,0,0,0,.13-.31V11.5h2.81V2.83h20.15v8.41l-2.62.28v8.37l-2.9.28V86.43h2.74V123.9h2.8v5.81h2.85v5.79H297.52V130l2.62-.28v-2.61l2.91-.26V37.55H300.3V51.7h-2.8a48.3,48.3,0,0,0-.12,5.74c0,1.91,0,3.82,0,5.85h-2.81V77.74l-2.82.15V89.18l-2.92.33v14.16l-2.93.25v11.4H283V126.8h-2.82c0,1.51-.08,2.9-.09,4.3s0,2.85,0,4.38h-5.7V124.13l-2.82-.16V112.68l-2.92-.33V104l-2.93-.24V92.31h-2.93V80.84h-2.81V72.13H257V60.58l-2.81-.14V49.08l-2.91-.16V121l2.71.2v5.54h2.76l.31,2.91h2.59v5.8H222.34v-2.75h-5.7v-5.62l-2.93-.32v-5.53l-2.93-.21v-8.43H208v-5.81H205V98.13L202.11,98V92.34l-2.81-.13V86.67l-2.93-.3V80.88h-5.79c0,.83-.08,1.64-.14,2.58h-2.26c-.68.59-.85,16.63-.43,26h2.67v17.35l2.93.16v2.79h2.81Zm8.81-124H187.69V71.9H205V66.37l2.93-.23V60.63l2.65-.3V20.12L207.78,20V14.2H205Z"/><path d="M398.44,78v-8.7h-2.8V57.7l-2.81-.16V49.09l-2.91-.17v69.19l2.68.26v8.49h2.89c.05,1.06.1,1.87.15,2.82h2.71c.23,2,.06,3.82.13,5.79H378.42V127l2.67-.14v-5.64l2.8-.12V63.58l2.9-.33V26l-2.7-.23V11.45h-2.88V2.86h17.13V8.41h2.93V20l2.82.16v11.3l2.91.31V43l2.93.28V54.66h2.93V66.13h2.87c.13,2,0,3.86.06,5.73s0,3.82,0,5.86h2.8V89.29l2.93.16v5.63h2.81V83.79l2.92-.31V69.28l2.93-.21V54.76h2.93V43.29h2.8V28.81h2.93V14.37l2.81-.15V3.28a3,3,0,0,1,.37-.41.53.53,0,0,1,.31-.13h19.55v8.54l-2.69.23V25.78h-2.88v28.8h2.27A4.74,4.74,0,0,1,459,55a.63.63,0,0,1,.12.31c0,20.92,0,41.83,0,62.88h2.79v8.69l2.83.15v8.52H439v-8.42l2.65-.29V112.62l2.9-.23V40.44h-5.64V54.58h-2.87c-.13,2,0,3.87-.06,5.74s0,3.81,0,5.85h-2.8V80.62l-2.93.17V92.2l-2.8.12v14.2l-2.93.31v11.31l-2.93.21v14.21h-2.75l-.32,2.91h-2.62c-.07-.77-.15-1.67-.24-2.69l-2.73-.14V121.23l-2.81-.14v-11.3l-2.92-.32v-8.41l-2.93-.22V89.42h-2.93V78Z"/><path d="M51.75,8.49h2.93V0h2.89l.14,2.59h2.5a4.19,4.19,0,0,1,.31,1c0,4.44,0,8.87,0,13.43h2.8V28.64l2.93.16V43.1l2.8.12V54.54l2.93.3V69.08l2.93.14V80.57h2.74L78,83.48h2.66V66.36l2.93-.15V46.13L86.4,46V11.56l-2.65-.29V8.64l-2.9-.22V5.66h2.78V2.86h17.16v8.45H98.15V14.2l-2.82.15v8.4l-2.92.33V37.25l-2.93.24V57.56H86.56V74.81H83.77c-.28,5.82,0,11.54-.16,17.37H80.83v20.21l-2.82.16v17.07L75.1,130v8.42l-2.93.13L72,135.64h-2.8V124.17H66.44a48.25,48.25,0,0,1-.12-5.74c0-1.91,0-3.81,0-5.85H63.5V101l-2.82-.16V89.56l-2.91-.31V78l-2.93-.27V66.33H51.91V54.86H49.22c.06-.06-.1,0-.1.1,0,3.69,0,7.39,0,11.21H46.18V83.51l-2.93.17v20.07l-2.8.12V121l-2.93.3v17H31.71V130H28.92c-.34-4.86,0-9.61-.2-14.47H26V101L23,100.87V86.57l-2.8-.14V72.25l-2.93-.33V57.74l-2.93-.22V43.21H11.46V28.85H8.65V20.14H5.72V11.48l-2.81-.15V8.71L0,8.38V5.74l2.69-.21.15-2.65H28.69v8.39H25.88c0,5.83,0,11.53,0,17.37H28.7V46l2.81.15V60.3l2.92.33v17l2.93.26V89.22h2.93V80.85h2.4a3.55,3.55,0,0,0,.39-.38.55.55,0,0,0,.12-.31c0-6.48,0-13,0-19.56H46V43.26l2.82-.16V26l2.91-.3Z"/><path d="M98.21,46.05h2.66V31.76l2.92-.25V23h2.93V17.3h2.8V11.49h2.88l.22-2.9,2.65-.15V5.81l2.91-.32V2.9l2.93-.28V0h20.22l.14,2.59h2.63l.33,2.92H147l.24,2.92,2.74.15v2.74l2.81.13V14.1l2.92.31v8.42l2.93.21v5.65h2.93V43h2.72v52h-2.62v11.57l-2.92.16v8.52l-2.81.13V121l-2.92.31v5.53l-2.9.22-.16,2.76h-2.8v2.8h-5.63l-.27,2.91h-20v-2.7l-2.82-.15V130l-2.91-.33v-2.6l-2.93-.25-.14-2.74h-2.75l-.13-2.81h-2.71v-5.81h-2.93V106.8l-2.82-.16V92.45l-2.91-.3ZM147.06,49V31.74l-2.91-.31V20.13L141.34,20V14.19h-2.93V8.63H127v2.81h-2.8L124,14.19l-2.91.22v8.41l-2.92.32V34.45l-2.8.12v23l-2.68.16V80.8h2.83v23.14h2.78c0,2,0,3.94,0,5.85s-.08,3.75.06,5.73h2.87v5.58l2.93.12v2.7l2.93.3v2.63h8.57v-2.74l2.76-.15c.07-1,.14-1.9.22-2.91h2.88v-5.81h2.8v-8.58h2.92V89.48l2.72-.22V49Z"/><path d="M360.93,2.86V5.53h5.69c0,1,.08,1.91.12,2.9l2.7.14V11.2l2.91.33V43.06l-2.68.13V31.68h-2.93V23.09h-2.8v-5.8h-2.87c-.09-1-.17-1.91-.25-2.93l-2.74-.14V11.47H349.5v2.62l-2.93.32v2.64l-2.93.21v5.65h-2.87V40.15h2.64l.29,2.93h2.71v5.78l2.93.15v2.82H355v2.74l2.92.25c.05.87.09,1.67.15,2.74h5.63c0,1.06.09,1.87.13,2.8h2.64c.11,1,.21,1.91.32,2.93h2.69v5.78l2.81.16v8.41l2.91.31v37.26l-2.67.29v8.42l-2.92.21v5.65h-2.93v2.8H364c-.1,1-.18,1.91-.27,2.93h-5.61v2.89H343.72v-2.67h-5.8v-2.88l-2.92-.24-.15-2.75h-2.74c-.05-1.06-.09-1.87-.13-2.8h-2.33c-.63-.62-.8-25.38-.37-34.68H332v11.35l2.93.16v8.52l2.8.13v5.54l2.92.3v5.54l2.9.21.15,2.65h2.63l.32,2.91H355c.07-.76.15-1.66.25-2.69h5.61v-5.77l2.81-.14V98.21l-2.64-.3V95.3l-2.92-.24c-.05-.87-.1-1.68-.15-2.74h-2.75c0-1.06-.08-1.87-.13-2.81h-2.64c-.11-1-.2-1.9-.31-2.93h-2.65l-.2-2.9-2.77-.15v-2.8h-5.69V78l-2.93-.26V72.11H335v-5.7h-2.8V60.6h-2.85V28.8l2.67-.14V20.14l2.81-.14V14.48l2.92-.32V8.64l2.91-.22c.05-.89.09-1.7.15-2.65h5.52l.31-2.91Z"/></g></g></svg>