<?xml version="1.0" encoding="utf-8"?>
<!-- Generator: Adobe Illustrator 24.3.0, SVG Export Plug-In . SVG Version: 6.00 Build 0)  -->
<svg version="1.1" id="container" xmlns="http://www.w3.org/2000/svg" xmlns:xlink="http://www.w3.org/1999/xlink" x="0px" y="0px"
	 viewBox="0 0 246.4 21.3" style="enable-background:new 0 0 246.4 21.3;" xml:space="preserve">
<g id="logo">
	<path d="M19.7,20.8h-6l0.4-2.6c-1.8,1.9-4.3,2.9-6.9,2.9H7c-5.2,0-6.9-3.4-6.4-6.7L2,5.8h6.1l-1.2,7.5C6.5,15.4,7.5,17,10.1,17
		c2.4,0.1,4.5-1.6,4.8-4L16,5.8h6.1L19.7,20.8z"/>
	<path d="M24.7,5.8h6.1l-0.4,2.6c1.8-1.9,4.4-2.9,7-2.9h0.1c5.3,0,7.1,3.4,6.5,6.6l-1.4,8.8h-6.1l1.2-7.4c0.3-2.2-0.5-3.8-3.3-3.8
		c-2.4-0.2-4.6,1.5-4.9,3.9l-1.2,7.2h-6.1L24.7,5.8z"/>
	<path d="M51.3,20.8h-6.1l2.4-15.1h6.1L51.3,20.8z M53.9,4.3h-6.1L48.5,0h6.1L53.9,4.3z"/>
	<path d="M59.7,20.8c-2.7,0-3.6-1.8-3.1-4.5l1-6.4h-2.8l0.7-4.1h2.8L59,1.4h6l-0.7,4.4h2.9l-0.7,4.1h-2.9l-0.9,5.5
		c-0.1,0.8,0,1.3,1,1.3h1.8l-0.7,4.1H59.7z"/>
	<path d="M89,15.5c-0.3,2-1.6,5.7-10.5,5.7H77c-7.4,0-9.8-3.2-9.8-7c0-0.5,0-1.1,0.1-1.6c0.6-3.8,3.1-7.2,11-7.2h1.6
		c7.6,0,9.5,3.5,9.5,6.9c0,0.8-0.1,1.5-0.2,2.3H73.1c0.1,1.8,1.5,2.9,4.8,2.9l0,0c4,0,4.8-1.5,5-1.9L89,15.5z M78.8,8.8
		c-3.1,0-4.5,1-5.2,2.6h9.9C83.3,9.7,82,8.8,78.8,8.8L78.8,8.8z"/>
	<path d="M115.6,0l-3.3,20.8h-6l0.4-2.3c-0.4,0.6-2.6,2.7-7.2,2.7h-0.4c-5.8,0-8.6-2.9-8.6-6.9c0-0.6,0-1.2,0.1-1.7
		c0.5-3.8,3.2-7.1,9.8-7.1h0.4c4.8,0,7,1.9,7.5,2.5l1.2-8H115.6z M107.4,12.9c0-1.9-1.7-3.6-5.1-3.6h-0.1c-4.2,0-5.4,2.2-5.4,4.3
		c0,1.9,1.2,3.6,4.4,3.6h0.1c3.6,0,5.6-1.9,6-3.4C107.4,13.5,107.4,13.2,107.4,12.9z"/>
	<path d="M119.8,20.8l-4-15.1h6.2l2.1,9.7l4.5-9.7h6.4l2.2,9.6l4.5-9.6h5.7l-7.7,15.1h-6.4l-2.4-10l-4.9,10H119.8z"/>
	<path d="M156.5,21.3c-7.9,0-10.1-3.7-10.1-7c0-0.5,0-0.9,0.1-1.4c0.4-3.6,2.6-7.5,11.1-7.5h1.9c8,0,10.1,3.4,10.1,6.8
		c0,0.5,0,0.9-0.1,1.4c-0.4,3.4-2.1,7.7-11.1,7.7H156.5z M163.3,12.7c0-1.7-1.1-3.3-5-3.3l0,0c-4.6,0-5.7,2.2-5.7,4.4
		c0,1.6,1.2,3.4,4.9,3.4C162,17.2,163.3,15,163.3,12.7L163.3,12.7z"/>
	<path d="M176.2,20.8h-6.1l2.4-15h6l-0.4,2.7c1.4-1.9,3.6-3,5.9-3h0.2c4.3,0,5.8,3.2,5.1,7.2l-0.1,0.4h-5.7c0.3-2-0.3-3.6-2.5-3.6
		l0,0c-2,0-3.2,1.5-3.5,3.5L176.2,20.8z"/>
	<path d="M189.8,20.8l2.4-15.1h6l-0.4,2.6c1.7-1.9,4.1-2.9,6.6-2.9h0.2c3,0,4.8,1.3,5.6,3c1.9-1.9,4.5-3,7.1-3h0.2
		c5.6,0,7,3.7,6.6,6.4l-1.4,9h-6.2l1.2-7.6c0.3-1.8-0.4-3.6-2.9-3.6c-2.2-0.1-4.1,1.6-4.3,3.8l-1.2,7.4h-6.1l1.2-7.6
		c0.3-1.8-0.4-3.6-2.9-3.6c-2.2-0.1-4.2,1.5-4.4,3.7l-1.2,7.5H189.8z"/>
	<path d="M234.3,21.2c-8.9,0-9.2-3.4-9.1-5.5h6.2c0,0.6,0,2,3.5,2h0.1c3.8,0,4.1-0.8,4.1-1.5c0-0.7-0.4-1.2-2.8-1.3l-2.6-0.1
		c-5.9-0.1-7.4-2.4-7.4-4.6c0-0.3,0-0.6,0.1-0.9c0.4-2.2,2.1-4.1,9.6-4.1h1c8,0,9.2,2.3,8.9,4.9h-6.1c0-0.6-0.3-1.5-3.8-1.5
		c-3.2,0-3.5,0.5-3.5,1.2s0.5,1.1,2.7,1.1l2.6,0.1c6.4,0.1,7.8,1.8,7.8,4.5c0,0.4-0.1,0.8-0.1,1.3c-0.5,2.3-2.2,4.3-10,4.3
		L234.3,21.2z"/>
</g>
</svg>
