<?xml version="1.0" encoding="UTF-8"?>
<svg id="Layer_2" data-name="Layer 2" xmlns="http://www.w3.org/2000/svg" viewBox="0 0 73.46 77.25">
  <defs>
    <style>
      .cls-1 {
        fill: #003a2a;
      }
    </style>
  </defs>
  <g id="Layer_1-2" data-name="Layer 1">
    <g id="uwLogo">
      <g id="face">
        <path id="rightEye" class="cls-1" d="m28.32,8.7c.93,0,1.68-.75,1.68-1.68s-.75-1.67-1.68-1.67-1.68.75-1.68,1.67.75,1.68,1.68,1.68Z"/>
        <path id="leftEye" class="cls-1" d="m22.12,7.53c-.93,0-1.67.75-1.67,1.68s.75,1.68,1.67,1.68,1.68-.75,1.68-1.68-.75-1.68-1.68-1.68Z"/>
        <path id="smile" class="cls-1" d="m27.03,12.17c-.84.3-1.75.25-2.56-.13l-.72,1.51c.69.33,1.42.49,2.16.49.57,0,1.14-.1,1.69-.29,1.26-.45,2.28-1.37,2.85-2.58l-1.51-.72c-.38.81-1.06,1.42-1.9,1.72Z"/>
      </g>
      <g id="body">
        <path class="cls-1" d="m62.42,14.13c-6.51-7.32-15.11-10.77-21.17-12.38C34.7.02,29.72,0,29.51,0c-.37,0-9.04.05-13.18,4.83-1.78,2.06-2.47,4.62-2.04,7.63.45,3.17,1.8,5.5,4.01,6.92.01,0,0,.02,0,.03-5.01.63-9.1,2.53-12.21,5.69C0,31.28,0,39.99,0,40.55c0,9.23,3.39,17.94,9.58,24.72,7.06,7.73,17.13,12.11,27.6,11.98,3.57-.04,7.05-.6,10.38-1.62.47-.15.94-.3,1.41-.47,0,0,0,0,0,0,.64-.26.49-.72.49-1.19,0-.91.06-1.8.17-2.68,1.19-9.61,8.68-17.29,18.2-18.75,1.08-.17,2.19-.25,3.31-.25.13,0,.25-.02.37-.04,0,0,0,0,.01,0,.31-.92.58-1.85.81-2.8.71-2.86,1.08-5.83,1.08-8.85.16-2.49.2-13.85-11.01-26.46Zm7.65,26.54c-.01,2.89-.39,5.69-1.09,8.36,0,0,0,0-.01.01-12.31,1.07-22.09,11.08-22.81,23.49,0,0,0,.01-.01.01-2.99.88-6.16,1.36-9.44,1.36-18.4,0-33.36-14.97-33.36-33.36v-.02c0-.08-.04-7.85,5.14-13.09,2.64-2.68,6.23-4.25,10.67-4.73-4.76,4.69-7.48,11.13-7.48,17.84,0,7.05,3,13.81,8.22,18.55,4.58,4.15,10.5,6.45,16.68,6.48.04,0,.09,0,.13,0,1.08,0,2.15-.07,3.21-.21.02-6.67,3.07-12.63,7.83-16.6,2.91-2.42,6.46-4.1,10.36-4.73,1.12-.18,2.26-.28,3.43-.28.14-1.06.21-2.13.21-3.21,0-.04,0-.09,0-.13-.04-6.97-3-13.66-8.16-18.36,0,0,0,0,0,0-4.62-4.22-10.61-6.54-16.87-6.54-2.67,0-5.28.42-7.77,1.24v-.04s-.02-.01-.03,0c-.29.1-5.42,1.9-8.66-.03-1.46-.87-2.33-2.4-2.66-4.67-.29-2.03.12-3.65,1.25-4.96,3.14-3.62,10.59-3.68,10.66-3.68.05,0,4.83.03,10.97,1.66,5.59,1.49,13.51,4.67,19.44,11.34,5.94,6.68,8.38,12.93,9.38,17,1.09,4.41.77,7.28.76,7.31h.02Zm-49.26-14.56c.04.05.07.11.11.16.1.14.2.29.3.43.02.02.03.04.04.06.12.16.24.32.36.48.04.05.07.09.11.14.09.11.18.22.27.34.04.05.09.1.13.15.09.11.19.22.28.33.04.04.07.09.11.13.13.15.27.29.41.44.02.02.04.04.06.06.12.12.24.25.37.37.05.04.09.09.14.13.1.1.2.19.31.29.05.04.1.09.14.13.12.11.24.21.36.32.03.03.06.05.09.08.15.13.31.26.46.38.04.03.08.06.12.09.12.09.24.19.36.28.05.04.11.08.16.12.12.08.23.17.35.25.03.02.06.04.09.07-.87,2.97-1.32,6.07-1.32,9.23s.44,6.19,1.29,9.14c-.04.03-.07.05-.11.08-.12.08-.23.16-.35.25-.06.04-.11.08-.17.12-.12.09-.24.18-.35.27-.04.03-.08.07-.13.1-.16.12-.31.25-.46.38-.04.03-.07.06-.1.09-.12.1-.23.2-.35.31-.05.05-.1.09-.15.14-.1.09-.2.19-.3.29-.05.05-.1.09-.14.14-.12.12-.24.24-.36.36-.02.02-.04.04-.06.06-.14.14-.27.29-.4.44-.04.04-.08.09-.12.13-.09.11-.19.22-.28.32-.04.05-.09.1-.13.16-.09.11-.18.22-.27.34-.04.05-.07.09-.11.14-.12.16-.24.32-.36.48-.02.02-.03.05-.05.07-.1.14-.2.28-.29.42-.04.05-.07.11-.11.16-.04.06-.08.12-.12.19-3.59-3.97-5.62-9.17-5.62-14.57s2.04-10.63,5.66-14.61c.04.06.08.12.12.19Zm2.45,31.12c.04-.06.08-.13.11-.19.06-.1.12-.19.19-.29.04-.05.07-.11.11-.16.08-.11.16-.23.24-.34.02-.03.05-.07.07-.11.11-.15.21-.29.32-.43.02-.03.04-.05.06-.08.09-.11.18-.23.27-.34.04-.05.08-.09.12-.14.08-.09.15-.18.23-.26.05-.05.09-.1.14-.15.07-.08.15-.16.22-.24.05-.05.1-.11.15-.16.07-.07.15-.15.22-.22.05-.05.11-.11.16-.16.07-.07.15-.14.22-.21.06-.05.11-.1.17-.15.07-.07.15-.13.23-.2.06-.05.12-.1.18-.15.08-.06.15-.13.23-.19.05-.04.09-.07.14-.11,1.28,3.14,3.06,6.11,5.3,8.82-3.36-.69-6.52-2.16-9.22-4.33.04-.07.09-.14.13-.21Zm6.69-6.05c.1-.05.21-.1.31-.14.05-.02.11-.05.16-.07.11-.05.21-.09.32-.14.06-.03.13-.05.2-.08.1-.04.2-.08.3-.11.07-.03.14-.05.21-.08.1-.03.19-.07.29-.1.07-.02.15-.05.22-.07.1-.03.19-.06.29-.09.08-.02.15-.04.23-.06.1-.03.19-.05.29-.08.08-.02.15-.04.23-.06.1-.02.19-.05.29-.07.08-.02.16-.03.23-.05.1-.02.2-.04.3-.06.08-.01.16-.03.23-.04.1-.02.2-.03.3-.05.08-.01.16-.02.23-.03.1-.01.21-.03.31-.04.04,0,.08,0,.11-.01v9.99c-2.17-2.62-3.87-5.5-5.06-8.56Zm-1.03-3.2c-.63-2.41-.96-4.91-.96-7.45s.33-5.1.98-7.54c1.92.86,3.96,1.39,6.07,1.58v11.81c-2.11.19-4.17.73-6.09,1.59Zm5.99-16.78c-.1-.01-.21-.02-.31-.04-.08-.01-.15-.02-.23-.03-.1-.02-.2-.03-.3-.05-.08-.01-.15-.03-.23-.04-.1-.02-.2-.04-.3-.06-.08-.02-.15-.03-.23-.05-.1-.02-.2-.04-.29-.07-.08-.02-.15-.04-.23-.06-.1-.03-.19-.05-.29-.08-.07-.02-.15-.04-.22-.06-.1-.03-.2-.06-.29-.09-.07-.02-.14-.04-.21-.07-.1-.03-.2-.07-.3-.1-.07-.02-.14-.05-.2-.07-.1-.04-.21-.08-.31-.12-.06-.02-.12-.05-.18-.07-.11-.05-.23-.1-.34-.15-.05-.02-.09-.04-.14-.06-.1-.05-.2-.09-.31-.14,1.18-3.03,2.87-5.88,5.02-8.47v9.88s-.07,0-.1-.01Zm-7.82-3.18s-.09-.07-.13-.1c-.08-.06-.16-.13-.23-.19-.06-.05-.12-.1-.17-.15-.08-.06-.15-.13-.23-.2-.06-.05-.11-.1-.17-.15-.08-.07-.15-.14-.22-.21-.05-.05-.11-.1-.16-.15-.07-.07-.15-.15-.22-.22-.05-.05-.1-.1-.15-.16-.07-.08-.15-.16-.22-.24-.05-.05-.09-.1-.14-.15-.08-.09-.16-.18-.23-.27-.04-.04-.08-.09-.12-.13-.11-.13-.21-.25-.31-.39,0,0-.02-.02-.02-.03-.11-.14-.22-.28-.32-.43-.04-.05-.07-.1-.1-.15-.07-.1-.14-.19-.2-.29-.04-.06-.08-.12-.12-.18-.06-.09-.12-.18-.17-.27-.04-.07-.08-.13-.12-.2-.04-.06-.08-.13-.12-.19,2.69-2.15,5.83-3.62,9.18-4.3-2.21,2.68-3.98,5.62-5.26,8.73Zm20.41,3.36s0,0,0,0c.05-.03.1-.07.15-.1.12-.08.23-.16.35-.25.05-.04.11-.08.16-.12.12-.09.24-.18.36-.27.04-.03.08-.06.12-.09.16-.12.31-.25.46-.38.03-.03.06-.05.09-.08.12-.1.24-.21.36-.31.05-.04.1-.09.14-.13.1-.1.21-.19.31-.29.04-.04.09-.08.13-.13.13-.12.25-.25.38-.38.01-.01.03-.03.04-.04.14-.14.27-.29.41-.44.04-.04.07-.08.11-.12.1-.11.19-.22.29-.33.04-.05.08-.1.12-.15.09-.11.19-.23.28-.34.03-.04.07-.08.1-.12.12-.16.24-.31.36-.47.02-.02.03-.05.05-.07.1-.14.2-.28.29-.42.04-.05.07-.1.11-.16.04-.06.08-.12.12-.18,3.57,3.96,5.59,9.15,5.59,14.52,0,.02,0,.05,0,.07-3.54.46-6.86,1.66-9.78,3.44.12-1.16.19-2.33.19-3.51,0-3.13-.44-6.2-1.3-9.15Zm2.71-7.52c-.04.06-.08.12-.12.18-.06.09-.12.19-.18.28-.04.06-.07.11-.11.17-.07.1-.14.2-.21.3-.03.05-.07.09-.1.14-.1.14-.2.27-.31.4,0,0-.01.02-.02.02-.11.14-.22.28-.34.41-.04.04-.08.09-.11.13-.08.09-.16.18-.24.27-.05.05-.1.1-.14.15-.07.08-.14.15-.22.23-.05.05-.11.11-.16.16-.07.07-.14.14-.21.21-.06.05-.11.11-.17.16-.07.07-.14.13-.22.2-.06.05-.12.1-.18.16-.07.06-.15.13-.22.19-.06.05-.12.1-.18.15-.07.06-.15.12-.22.18-.06.05-.13.1-.19.15,0,0,0,0,0,0-1.28-3.14-3.06-6.1-5.29-8.81,3.38.69,6.56,2.18,9.27,4.37-.04.07-.08.13-.12.2Zm-6.76,5.99c-.07.03-.15.07-.22.1-.06.02-.11.05-.17.07-.1.04-.21.09-.31.13-.07.03-.13.05-.2.08-.1.04-.19.08-.29.11-.07.03-.14.05-.21.08-.09.03-.19.07-.28.1-.07.02-.15.05-.22.07-.09.03-.19.06-.28.09-.08.02-.15.04-.23.06-.09.03-.19.05-.28.08-.08.02-.15.04-.23.06-.1.02-.19.04-.29.07-.08.02-.16.03-.23.05-.1.02-.19.04-.29.06-.08.01-.16.03-.23.04-.1.02-.2.03-.3.05-.08.01-.15.02-.23.03-.1.01-.2.03-.31.04-.08,0-.15.02-.23.03-.01,0-.02,0-.03,0v-9.94c2.18,2.62,3.89,5.5,5.08,8.56Zm1.04,3.2c.64,2.42.97,4.93.97,7.49,0,2.18-.24,4.32-.71,6.41-.27.25-.53.5-.79.75-1.78-.72-3.66-1.17-5.58-1.33v-11.78c2.12-.17,4.18-.7,6.11-1.55Zm-6.07,16.69c.08,0,.15.02.23.03.1.01.21.02.31.04.08.01.16.02.23.03.1.02.2.03.3.05.08.01.16.03.24.04.1.02.19.04.29.06.08.02.16.03.24.05.1.02.19.04.29.07.08.02.16.04.23.06.09.02.19.05.28.08.08.02.16.04.23.07.09.03.19.06.28.09.02,0,.03.01.05.02-1.31,1.74-2.41,3.67-3.23,5.72v-6.39s.03,0,.04,0Z"/>
      </g>
    </g>
  </g>
</svg>