<svg xmlns="http://www.w3.org/2000/svg" viewBox="0 0 562.84 138.5"><defs><style>.cls-1{fill:none;}</style></defs><g id="Layer_2" data-name="Layer 2"><g id="Layer_3" data-name="Layer 3"><path class="cls-1" d="M519.7,57.52h-2.93v-8.7H514V40.24h-2.93V31.67l-2.92-.13V23.06l-2.93-.29V17.29l-2.9-.3V11.46l-2.66-.15c-.07-1-.14-1.89-.2-2.69h-2.65l-.32,2.91h-2.72v8.58H491c-.54,24.86-.31,94.84.36,98.29h2.51V127h2.79c.05,1.07.08,1.88.13,2.86l2.93-.14v-2.64l2.91-.32v-2.63l2.82-.16v-5.78h2.93v-5.81h2.79v-8.58h2.93V98.13l2.93-.21V89.4h2.92V80.83l2.61-.27V66.34l-2.81-.16Z"/><path class="cls-1" d="M207.78,14.2H205V11.52H187.69V71.9H205V66.37l2.93-.23V60.63l2.65-.3V20.12L207.78,20Z"/><path class="cls-1" d="M147.06,31.74l-2.91-.31V20.13L141.34,20V14.19h-2.93V8.63H127v2.81h-2.8c-.06,1.06-.1,1.87-.15,2.75l-2.91.22v8.41l-2.92.32V34.45l-2.8.12v23l-2.68.16V80.8h2.83v23.14h2.78c0,2,0,3.94,0,5.85s-.08,3.75.06,5.73h2.87v5.58l2.93.12v2.7l2.93.3v2.63h8.57v-2.74l2.76-.15c.07-1,.14-1.9.22-2.91h2.88v-5.81h2.8v-8.58h2.92V89.48l2.72-.22V49h-2.91Z"/><path class="cls-1" d="M560,11.53h-2.73v5.7h-2.79c0,1.06-.09,1.87-.13,2.72l-2.94.27v5.49l-2.91.31v8.41l-2.83.16v5.79h-2.8c0,1.55,0,3,0,4.41s0,2.78-.08,4.29H540v5.7h-2.74V66.25h2.91V75h2.8v8.57l2.93.16v8.69h2.8c0,1.55,0,3,0,4.41s.05,2.77.07,4.28h2.86v8.47l2.93.13v5.58l2.93.31v5.53l2.81.13v5.61h2.58V8.62h-2.51Z"/><path d="M560.26,126.83v-5.61l-2.81-.13v-5.53l-2.93-.31v-5.58l-2.93-.13v-8.47h-2.86c0-1.51-.06-2.89-.07-4.28s0-2.86,0-4.41h-2.8V83.69l-2.93-.16V75h-2.8V66.25h-2.91V54.78H540v-5.7h2.84c0-1.51.07-2.9.08-4.29s0-2.86,0-4.41h2.8V34.59l2.83-.16V26l2.91-.31V20.22l2.94-.27c0-.85.08-1.66.13-2.72h2.79v-5.7H560l.32-2.91h2.51V2.89H543v8.39l2.66.27V22.9l-2.81.12V34.43l-2.93.16v8.69H537V48.8h-5.69V40.21h-2.93V28.84l-2.93-.29V2.8H470.81v8.53l2.82.16v8.66h2.64v98.23h-2.72V127h-2.79v8.47h46V127l-2.65-.27v-8.46l2.81-.12V106.78l2.93-.16V97.94h2.8c0-1.56,0-3,0-4.41s.05-2.78.08-4.29h2.85V83.76h2.93v8.49h2.93v8.56l2.91.31v8.41l2.57.14v20.25h-2.74c.08,2-.09,3.84.1,5.54h28.55v-8.63ZM522.51,80.56l-2.61.27V89.4H517v8.52l-2.93.21v5.65h-2.93v8.58h-2.79v5.81H505.4V124l-2.82.16v2.63l-2.91.32v2.64l-2.93.14c-.05-1-.08-1.79-.13-2.86h-2.79V118.4h-2.51c-.67-3.45-.9-73.43-.36-98.29h2.8V11.53h2.72l.32-2.91h2.65c.06.8.13,1.7.2,2.69l2.66.15V17l2.9.3v5.48l2.93.29v8.48l2.92.13v8.57H514v8.58h2.79v8.7h2.93v8.66l2.81.16Z"/><path d="M323.24,123.9h-2.8V86.43H317.7V20.17l2.9-.28V11.52l2.62-.28V2.83H303.07V11.5h-2.81V25.29a.61.61,0,0,1-.13.31,4.74,4.74,0,0,1-.41.38h-2.39V37.45H294.4V51.72l-2.93.29V66.22l-2.81.12v14.3l-2.93.16V92.15H280c0-2,0-3.94,0-5.85s.07-3.75-.06-5.73h-2.87V69.22l-2.93-.14V57.73l-2.93-.31V46.11L268.44,46V34.57l-2.93-.15V22.83h-2.79c0-2,0-3.94,0-5.85s.08-3.75-.06-5.73h-2.88V2.9h-20V8.38l2.91.32v5.53l2.6.12V118.21l-2.83.13v8.71h-2.67c-.1,1-.2,1.9-.27,2.62h-2.67c0-1-.1-1.77-.15-2.65l-2.91-.23v-2.62l-2.92-.33v-5.52l-2.82-.14V112.4h-2.93v-5.82h-2.8V98h-2.94V92.37l-2.93-.25V83.74l-2.63-.3V75l2.69-.14c0-1,.09-1.89.13-2.9h2.69c.11-1,.2-1.92.31-2.93h2.73v-5.7h2.93V51.94l2.69-.24V28.86L225,28.53v-8.4L222.2,20V14.19h-2.68c-.11-1-.21-1.92-.32-2.93h-2.64c-.05-.94-.09-1.75-.14-2.81h-2.75c0-1.06-.08-1.87-.13-2.93h-5.83V2.8H167.55v8.53l2.82.16v8.68H173c.54,11.6.32,97.94-.27,101.12h-2.52V127h-2.74v8.53h28.65v-5.73h-2.81V127l-2.93-.16V109.49h-2.67c-.42-9.4-.25-25.44.43-26h2.26c.06-.94.1-1.75.14-2.58h5.79v5.49l2.93.3v5.54l2.81.13V98l2.93.16v8.69H208v5.81h2.8v8.43l2.93.21v5.53l2.93.32v5.62h5.7v2.75h37.31v-5.8h-2.59c-.1-1-.2-1.9-.31-2.91H254v-5.54l-2.71-.2V48.92l2.91.16V60.44l2.81.14V72.13h2.93v8.71h2.81V92.31h2.93v11.41l2.93.24v8.39l2.92.33V124l2.82.16v11.35H280c0-1.53,0-2.95,0-4.38s.05-2.79.09-4.3H283V115.32h2.93v-11.4l2.93-.25V89.51l2.92-.33V77.89l2.82-.15V63.29h2.81c0-2,0-3.94,0-5.85a48.3,48.3,0,0,1,.12-5.74h2.8V37.55h2.75v89.27l-2.91.26v2.61l-2.62.28v5.53h28.57v-5.79h-2.85ZM210.59,60.33l-2.65.3v5.51l-2.93.23V71.9H187.69V11.52H205V14.2h2.81V20l2.81.14Z"/><path d="M461.91,118.15h-2.79c0-21.05,0-42,0-62.88A.63.63,0,0,0,459,55a4.74,4.74,0,0,0-.41-.38h-2.27V25.78h2.88V11.5l2.69-.23V2.73H442.33a.53.53,0,0,0-.31.13,3,3,0,0,0-.37.41V14.22l-2.81.15V28.81h-2.93V43.29h-2.8V54.76h-2.93V69.07l-2.93.21v14.2l-2.92.31V95.08h-2.81V89.45l-2.93-.16V77.72h-2.8c0-2,0-4,0-5.86s.07-3.75-.06-5.73h-2.87V54.66h-2.93V43.28L407,43V31.74l-2.91-.31V20.13L401.27,20V8.41h-2.93V2.86H381.21v8.59h2.88V25.74l2.7.23V63.25l-2.9.33V121.1l-2.81.12v5.64l-2.66.14v8.47h20.06c-.07-2,.1-3.83-.13-5.79h-2.71c-.05-1-.1-1.76-.15-2.82H392.6v-8.49l-2.68-.26V48.92l2.91.17v8.45l2.81.16V69.25h2.8V78h2.93V89.42h2.93v11.42l2.93.22v8.41l2.92.32v11.3l2.81.14v11.41l2.73.14c.09,1,.17,1.92.24,2.69h2.62l.32-2.91h2.75V118.35l2.93-.21V106.83l2.93-.31V92.32l2.8-.12V80.79l2.93-.17V66.17H436c0-2,0-3.94,0-5.85s-.07-3.76.06-5.74h2.87V40.44h5.64v72l-2.9.23V126.8l-2.65.29v8.42h25.71V127l-2.83-.15Z"/><path d="M100.79,2.86H83.63v2.8H80.85V8.42l2.9.22v2.63l2.65.29V46l-2.81.13V66.21l-2.93.15V83.48H78c-.12-1-.22-1.9-.33-2.91H74.93V69.22L72,69.08V54.84l-2.93-.3V43.22l-2.8-.12V28.8l-2.93-.16V17.06h-2.8c0-4.56,0-9,0-13.43a4.19,4.19,0,0,0-.31-1h-2.5c-.05-.94-.09-1.75-.14-2.59H54.68V8.49H51.75V25.72l-2.91.3V43.1L46,43.26V60.6H43.21c0,6.6,0,13.08,0,19.56a.55.55,0,0,1-.12.31,3.55,3.55,0,0,1-.39.38h-2.4v8.37H37.36V77.93l-2.93-.26v-17l-2.92-.33V46.12L28.7,46V28.64H25.88c0-5.84,0-11.54,0-17.37h2.81V2.88H2.84c0,1-.1,1.77-.15,2.65L0,5.74V8.38l2.91.33v2.62l2.81.15v8.66H8.65v8.71h2.81V43.21h2.92V57.52l2.93.22V71.92l2.93.33V86.43l2.8.14v14.3L26,101v14.47h2.75c.18,4.86-.14,9.61.2,14.47h2.79v8.36h5.81v-17l2.93-.3v-17.1l2.8-.12V83.68l2.93-.17V66.17h2.93c0-3.82,0-7.52,0-11.21,0-.08.16-.16.1-.1h2.69V66.33h2.93V77.72l2.93.27V89.25l2.91.31v11.3l2.82.16v11.56h2.81c0,2,0,3.94,0,5.85a48.25,48.25,0,0,0,.12,5.74h2.79v11.47H72c.06,1.07.1,1.88.15,2.86l2.93-.13V130l2.91-.33V112.55l2.82-.16V92.18h2.78c.13-5.83-.12-11.55.16-17.37h2.79V57.56h2.92V37.49l2.93-.24V23.08l2.92-.33v-8.4l2.82-.15V11.31h2.64Z"/><path d="M161.61,28.69h-2.93V23l-2.93-.21V14.41l-2.92-.31V11.45L150,11.32V8.58l-2.74-.15c-.08-1-.16-1.91-.24-2.92h-2.61c-.12-1-.22-1.91-.33-2.92h-2.63c-.05-.95-.09-1.76-.14-2.59H121.11V2.62l-2.93.28V5.49l-2.91.32V8.44l-2.66.15c-.07,1-.13,1.89-.21,2.9h-2.88V17.3h-2.8V23h-2.93v8.51l-2.92.25V46.05H98.21v46.1l2.91.3v14.19l2.82.16v8.67h2.93v5.81h2.71c0,.94.08,1.75.13,2.81h2.75c.05,1.06.1,1.87.14,2.74l2.93.25v2.6l2.91.33v2.63l2.82.15v2.7h20c.1-1,.18-1.9.27-2.91h5.63v-2.8H150c.06-1.06.1-1.87.16-2.76l2.9-.22v-5.53L156,121v-5.53l2.81-.13v-8.52l2.92-.16V95.05h2.62V43h-2.72ZM150,89.26l-2.72.22v17.18h-2.92v8.58h-2.8v5.81h-2.88c-.08,1-.15,1.91-.22,2.91l-2.76.15v2.74H127.1v-2.63l-2.93-.3v-2.7l-2.93-.12v-5.58h-2.87c-.14-2-.05-3.86-.06-5.73s0-3.82,0-5.85h-2.78V80.8h-2.83V57.69l2.68-.16v-23l2.8-.12V23.14l2.92-.32V14.41l2.91-.22c0-.88.09-1.69.15-2.75H127V8.63h11.46v5.56h2.93V20l2.81.16v11.3l2.91.31V49H150Z"/><path d="M372.32,69.23l-2.81-.16V63.29h-2.69c-.11-1-.21-1.92-.32-2.93h-2.64c0-.93-.08-1.74-.13-2.8H358.1c-.06-1.07-.1-1.87-.15-2.74L355,54.57V51.83h-5.69V49l-2.93-.15V43.08H343.7l-.29-2.93h-2.64V22.91h2.87V17.26l2.93-.21V14.41l2.93-.32V11.47h8.58v2.75l2.74.14c.08,1,.16,1.92.25,2.93h2.87v5.8h2.8v8.59h2.93V43.19l2.68-.13V11.53l-2.91-.33V8.57l-2.7-.14c0-1-.08-1.89-.12-2.9h-5.69V2.86H346.6c-.11,1-.2,1.9-.31,2.91h-5.52c-.06,1-.1,1.76-.15,2.65l-2.91.22v5.52l-2.92.32V20l-2.81.14v8.52l-2.67.14V60.6h2.85v5.81H335v5.7h2.93v5.61l2.93.26v2.75h5.69v2.8l2.77.15c.07,1,.13,1.89.2,2.9h2.65c.11,1,.2,1.92.31,2.93h2.64c.05.94.08,1.75.13,2.81H358c.05,1.06.1,1.87.15,2.74l2.92.24v2.61l2.64.3v22.88l-2.81.14V127h-5.61c-.1,1-.18,1.93-.25,2.69h-8.4l-.32-2.91h-2.63c0-1-.1-1.76-.15-2.65l-2.9-.21v-5.54l-2.92-.3v-5.54l-2.8-.13v-8.52l-2.93-.16V92.38h-2.67c-.44,9.3-.26,34.07.37,34.68H332c0,.93.08,1.74.12,2.8h2.75c.06,1.07.1,1.87.15,2.75l2.92.24v2.88h5.8v2.67h14.37v-2.89h5.61c.09-1,.17-1.92.27-2.93h2.74v-2.8h2.93v-5.65l2.92-.21V115.5l2.67-.29V78l-2.91-.31Z"/></g></g></svg>